<mxfile host="app.diagrams.net" modified="2024-02-23T06:31:50.201Z" agent="Mozilla/5.0 (Windows NT 10.0; Win64; x64) AppleWebKit/537.36 (KHTML, like Gecko) Chrome/121.0.0.0 Safari/537.36" etag="b9w2Cf6SoTj9eJ2yMLv0" version="23.1.5" type="github">
  <diagram name="第 1 页" id="8Q2nPifi0KmhAcC8GsSP">
    <mxGraphModel dx="1799" dy="1003" grid="1" gridSize="10" guides="1" tooltips="1" connect="1" arrows="1" fold="1" page="1" pageScale="1" pageWidth="827" pageHeight="1169" math="0" shadow="0">
      <root>
        <mxCell id="0" />
        <mxCell id="1" parent="0" />
        <mxCell id="Kocu25sfgQO6UqpNJKFs-2" value="" style="rounded=0;whiteSpace=wrap;html=1;fillColor=none;strokeColor=#4D4D4D;shadow=0;" vertex="1" parent="1">
          <mxGeometry x="60" y="140" width="690" height="590" as="geometry" />
        </mxCell>
        <mxCell id="Kocu25sfgQO6UqpNJKFs-5" value="项目生态" style="text;html=1;align=center;verticalAlign=middle;whiteSpace=wrap;rounded=0;fontSize=14;fontStyle=1;shadow=0;" vertex="1" parent="1">
          <mxGeometry x="375" y="140" width="60" height="30" as="geometry" />
        </mxCell>
        <mxCell id="Kocu25sfgQO6UqpNJKFs-6" value="磐石/Zebras/生态市场" style="text;html=1;align=center;verticalAlign=middle;whiteSpace=wrap;rounded=0;fontSize=14;fontStyle=1;shadow=0;" vertex="1" parent="1">
          <mxGeometry x="60" y="140" width="150" height="30" as="geometry" />
        </mxCell>
        <mxCell id="Kocu25sfgQO6UqpNJKFs-22" value="" style="endArrow=none;html=1;rounded=0;exitX=0;exitY=0.75;exitDx=0;exitDy=0;strokeColor=#4D4D4D;shadow=0;" edge="1" parent="1">
          <mxGeometry width="50" height="50" relative="1" as="geometry">
            <mxPoint x="60" y="169.5" as="sourcePoint" />
            <mxPoint x="750" y="170" as="targetPoint" />
          </mxGeometry>
        </mxCell>
        <mxCell id="Kocu25sfgQO6UqpNJKFs-119" value="" style="rounded=0;whiteSpace=wrap;html=1;" vertex="1" parent="1">
          <mxGeometry x="60" y="170" width="690" height="560" as="geometry" />
        </mxCell>
      </root>
    </mxGraphModel>
  </diagram>
</mxfile>
